#define 1610350258730_width 256
#define 1610350258730_height 10
static char 1610350258730_bits[] = {
  0x00, 0x00, 0x00, 0x00, 0x00, 0x00, 0x00, 0x00, 0x00, 0x00, 0x00, 0x00, 
  0x00, 0x00, 0x00, 0x00, 0x00, 0x80, 0xFF, 0x1F, 0x00, 0x00, 0x00, 0x00, 
  0x00, 0x00, 0x00, 0x00, 0x00, 0x00, 0x00, 0x00, 0x00, 0x00, 0x00, 0x00, 
  0x00, 0x00, 0x00, 0x00, 0x00, 0x00, 0x00, 0x00, 0x00, 0x00, 0x00, 0x00, 
  0x00, 0xF0, 0x00, 0x70, 0x00, 0x00, 0x00, 0x80, 0xFF, 0x0F, 0x00, 0x00, 
  0x00, 0x00, 0x00, 0x00, 0x00, 0x00, 0x00, 0x00, 0x00, 0x00, 0x00, 0x00, 
  0x00, 0x00, 0x00, 0xFC, 0x03, 0x00, 0x00, 0x00, 0x00, 0x1E, 0x00, 0x80, 
  0x03, 0x00, 0xF0, 0xFF, 0x00, 0xF0, 0x00, 0x00, 0x00, 0x00, 0x00, 0x00, 
  0xFF, 0x07, 0x00, 0xF0, 0xFF, 0xFF, 0x07, 0x00, 0x00, 0x00, 0xF0, 0x07, 
  0x1C, 0x00, 0x00, 0x00, 0xFC, 0x03, 0x00, 0x00, 0xFC, 0xFF, 0x1F, 0x00, 
  0x00, 0x80, 0xFF, 0xFF, 0xFF, 0xFF, 0xFF, 0xFF, 0x00, 0xFC, 0xFF, 0x1F, 
  0x00, 0x00, 0xFC, 0xFF, 0x00, 0xFC, 0x0F, 0x00, 0xE0, 0xFF, 0xFF, 0xFF, 
  0x07, 0x00, 0x00, 0x00, 0x00, 0x00, 0x00, 0x00, 0x00, 0x00, 0x00, 0x00, 
  0x00, 0x00, 0x00, 0x00, 0x00, 0x00, 0x00, 0x00, 0x00, 0x00, 0x00, 0x80, 
  0xFF, 0x03, 0x00, 0x00, 0x00, 0x00, 0x00, 0x00, 0x00, 0x00, 0x00, 0x00, 
  0x00, 0x00, 0x00, 0x00, 0x00, 0x00, 0x00, 0x00, 0x00, 0x00, 0x00, 0x00, 
  0x00, 0x02, 0x00, 0x04, 0x18, 0x00, 0x03, 0x00, 0x00, 0x00, 0x00, 0x00, 
  0x0E, 0x00, 0x00, 0x00, 0x00, 0x00, 0xC0, 0x01, 0x00, 0x00, 0x00, 0x78, 
  0x00, 0x00, 0x80, 0x00, 0x00, 0x02, 0x00, 0x11, 0x00, 0x00, 0x00, 0x00, 
  0x00, 0x1C, 0x00, 0x00, 0x03, 0x00, 0x00, 0x00, 0x00, 0x00, 0x00, 0xC0, 
  0x01, 0x00, 0x00, 0x00, 0x00, 0x00, 0xC0, 0x01, 0x40, 0x28, 0x48, 0x00, 
  0x84, 0x00, 0x04, 0x01, 0x00, 0x00, 0x07, 0x00, 0x00, 0x00, 0x00, 0x20, 
  0x00, 0x70, 0x00, 0x00, 0x00, 0x0C, 0xC8, 0x00, 0x00, 0x30, 0x00, 0x30, 
  0xC0, 0x01, 0x00, 0x00, 0xE0, 0x00, 0x00, 0x00, 0x00, 0x00, 0x00, 0x00, 
  0x00, 0x00, 0x00, 0x00, 0x00, 0x00, 0x00, 0x00, 0x00, 0x00, 0x00, 0x00, 
  0x00, 0x00, 0x00, 0x00, 0x00, 0x00, 0x00, 0x00, 0x00, 0x00, 0x00, 0x00, 
  0x00, 0x00, 0x00, 0x00, 0x00, 0x00, 0x00, 0x00, };
