#define 1610350271194_width 10
#define 1610350271194_height 20
static char 1610350271194_bits[] = {
  0x38, 0x00, 0x38, 0x00, 0xB8, 0x01, 0xB8, 0x01, 0xB8, 0x01, 0xB8, 0x01, 
  0xB8, 0x01, 0xBB, 0x01, 0xBB, 0x01, 0xFB, 0x00, 0x7B, 0x00, 0x3B, 0x00, 
  0x3B, 0x00, 0x3B, 0x00, 0x3E, 0x00, 0x3C, 0x00, 0x38, 0x00, 0x38, 0x00, 
  0x38, 0x00, 0x38, 0x00, };
