#define 1610350165116_width 20
#define 1610350165116_height 20
static char 1610350165116_bits[] = {
  0x00, 0xF8, 0x07, 0x00, 0xFC, 0x0F, 0x00, 0xEC, 0x0F, 0x00, 0xFC, 0x0F, 
  0x00, 0xFC, 0x0F, 0x00, 0x7C, 0x00, 0x01, 0xFC, 0x03, 0x01, 0x1E, 0x00, 
  0x83, 0x1F, 0x00, 0xE7, 0x7F, 0x00, 0xFF, 0x5F, 0x00, 0xFF, 0x1F, 0x00, 
  0xFE, 0x1F, 0x00, 0xFC, 0x1F, 0x00, 0xF8, 0x0F, 0x00, 0xF0, 0x07, 0x00, 
  0x60, 0x06, 0x00, 0x20, 0x04, 0x00, 0x20, 0x04, 0x00, 0x60, 0x0C, 0x00, 
  };
