#define 1610383349669_width 11
#define 1610383349669_height 11
static char 1610383349669_bits[] = {
  0x20, 0x00, 0x60, 0x00, 0x72, 0x04, 0x73, 0x06, 0x73, 0x06, 0x73, 0x06, 
  0x7F, 0x06, 0xFE, 0x07, 0xF0, 0x03, 0x70, 0x00, 0x73, 0x00, };
